# xmcd CD database file
#
# Track frame offsets:
#	150
#	24781
#	52684
#	75546
#	116921
#	147518
#	176221
#
# Disc length: 2785 seconds
#
# Revision: 0
# Processed by: cddbd v1.5.1PL0 Copyright (c) Steve Scherf et al.
# Submitted via: CDex 1.51
#
DISCID=540adf07
DTITLE=Piotr Zastrozny - Album.Live in studio
DYEAR=2005
DGENRE=Jazz
TTITLE0=Standin' At The Crossroads
TTITLE1=Everything I Do Gonh Be Funky (From Now On)
TTITLE2=That's Your Thing
TTITLE3=TV Dinner Blues
TTITLE4=Boogie - Boom Boom Boom
TTITLE5=Someday After A While
TTITLE6=A we Warszawie jesieñ
EXTD=YEAR: 2005
EXTT0=
EXTT1=
EXTT2=
EXTT3=
EXTT4=
EXTT5=
EXTT6=
PLAYORDER=
